<svg width="108" height="58" viewBox="0 0 108 58" fill="none" xmlns="http://www.w3.org/2000/svg">
<g clip-path="url(#clip0_318_4152)">
<path d="M65.6395 32.5056C65.8237 32.5056 66.0004 32.5634 66.1307 32.6662C66.2609 32.7689 66.3341 32.9083 66.3341 33.0536V38.355H79.658C79.8422 38.355 80.0189 38.4127 80.1491 38.5155C80.2794 38.6183 80.3526 38.7577 80.3526 38.903C80.3526 39.0484 80.2794 39.1877 80.1491 39.2905C80.0189 39.3933 79.8422 39.451 79.658 39.451H66.3341V57.7844H64.9449V33.0536C64.9449 32.9083 65.0181 32.7689 65.1483 32.6662C65.2786 32.5634 65.4553 32.5056 65.6395 32.5056V32.5056Z" fill="#EAE0F2"/>
<path d="M28.5607 57.6599L26.0561 57.7145C25.6756 57.7299 25.2992 57.6467 24.9844 57.4774C24.7124 57.3178 24.5876 57.102 24.6423 56.8853L25.1352 54.9312C25.2281 54.5625 25.8007 54.2838 26.4966 54.2686L27.8798 54.2385C28.5757 54.2233 29.167 54.4767 29.2855 54.8407L29.9143 56.7705C29.9841 56.9845 29.8746 57.2054 29.6142 57.3766C29.3117 57.5592 28.9417 57.6587 28.5607 57.6599V57.6599Z" fill="#3F3D56"/>
<path d="M43.7954 57.6041L41.2908 57.6586C40.9103 57.6741 40.5339 57.5908 40.2191 57.4216C39.9471 57.262 39.8223 57.0462 39.877 56.8295L40.3699 54.8753C40.4628 54.5067 41.0354 54.2279 41.7313 54.2128L43.1145 54.1827C43.8105 54.1675 44.4017 54.4208 44.5202 54.7849L45.1491 56.7146C45.2188 56.9286 45.1093 57.1495 44.8489 57.3207C44.5464 57.5034 44.1764 57.6029 43.7954 57.6041V57.6041Z" fill="#3F3D56"/>
<path d="M19.8635 41.0139C19.7491 40.975 19.6549 40.9064 19.5966 40.8196C19.5383 40.7327 19.5193 40.6327 19.5428 40.5362C19.5663 40.4396 19.6309 40.3523 19.7258 40.2887C19.8208 40.225 19.9404 40.1888 20.065 40.1861L48.5399 39.5658C48.6117 39.5642 48.6831 39.5738 48.7502 39.594C48.8173 39.6143 48.8787 39.6447 48.9309 39.6836C48.983 39.7226 49.025 39.7692 49.0543 39.821C49.0836 39.8727 49.0997 39.9284 49.1017 39.9851V39.9851C49.1056 40.0995 49.0517 40.2104 48.9521 40.2935C48.8524 40.3765 48.7151 40.4251 48.5701 40.4284L48.5701 40.4283L20.0952 41.0487C20.0157 41.0506 19.9366 41.0387 19.8635 41.0139Z" fill="#3F3D56"/>
<path d="M30.3723 33.5768L22.2328 33.7542L22.9917 55.4351L31.1311 55.2578L30.3723 33.5768Z" fill="#EAE0F2"/>
<path d="M30.5787 33.1873L29.0141 36.55L29.0155 51.8702L30.922 52.3016L30.5787 33.1873Z" fill="#EAE0F2"/>
<path d="M26.2601 27.9108C24.7373 27.9449 23.5755 30.024 23.6035 30.8353L23.6549 32.3042L29.1687 32.184L29.1173 30.7152C29.0884 29.9039 27.7829 27.8785 26.2601 27.9108Z" fill="#3F3D56"/>
<path d="M22.3384 42.7328C22.0539 42.7387 21.778 42.6554 21.5713 42.5011C21.3646 42.3467 21.2439 42.134 21.2357 41.9096L21.152 39.5192C21.1442 39.2946 21.2497 39.0768 21.4454 38.9137C21.6411 38.7505 21.9109 38.6554 22.1955 38.6492C22.4801 38.643 22.7561 38.7262 22.9629 38.8806C23.1697 39.035 23.2903 39.2479 23.2982 39.4724L23.3818 41.8628C23.3894 42.0873 23.2837 42.3049 23.0881 42.468C22.8925 42.6311 22.6229 42.7263 22.3384 42.7328Z" fill="#3F3D56"/>
<path d="M24.4039 33.8056L24.3654 32.2258L24.8905 32.2155L24.929 33.7902L25.405 56.7414L24.8798 56.7529" fill="#3F3D56"/>
<path d="M31.3056 37.4998L21.8667 37.7055C20.9651 36.8381 20.8832 33.1428 22.7647 32.4395L23.5026 31.4511L29.1911 31.232L29.8559 32.2727C30.7918 32.901 31.2744 36.5732 31.3056 37.4998Z" fill="#EAE0F2"/>
<path d="M27.7529 35.7275L25.366 35.7795C24.9054 35.7896 24.5138 35.3181 24.4931 34.7287C24.4725 34.1393 24.8305 33.6515 25.2911 33.6415L27.6781 33.5895C28.1387 33.5794 28.5303 34.0509 28.5509 34.6403C28.5716 35.2297 28.2135 35.7175 27.7529 35.7275Z" fill="#773DAD"/>
<path d="M23.1306 46.3882L18.2104 49.1303L17.3508 55.3128L23.0906 53.7998L23.1306 46.3882Z" fill="#EAE0F2"/>
<path d="M46.0844 33.3113L37.9449 33.4886L38.7038 55.1696L46.8433 54.9923L46.0844 33.3113Z" fill="#EAE0F2"/>
<path d="M38.1399 33.2598L39.8147 36.5893L40.3172 51.9044L38.4254 52.3746L38.1399 33.2598Z" fill="#EAE0F2"/>
<path d="M50.1549 27.2919C50.7441 27.2919 51.2217 26.7866 51.2217 26.1633C51.2217 25.54 50.7441 25.0346 50.1549 25.0346C49.5657 25.0346 49.088 25.54 49.088 26.1633C49.088 26.7866 49.5657 27.2919 50.1549 27.2919Z" fill="#EAE0F2"/>
<path d="M41.8134 27.6487C40.2906 27.6828 39.1288 29.7619 39.1567 30.5733L39.2081 32.0421L44.7219 31.922L44.6705 30.4531C44.6417 29.6418 43.3362 27.6165 41.8134 27.6487Z" fill="#3F3D56"/>
<path d="M43.39 34.3001L43.3515 32.7203L43.8766 32.7099L43.9151 34.2847L44.3911 57.2359L43.8659 57.2474" fill="#3F3D56"/>
<path d="M46.8588 37.2378L37.4199 37.4434C37.2553 36.6586 37.4682 32.9963 38.318 32.1774L39.0558 31.189L44.7444 30.9699L45.4092 32.0106C47.0887 32.1186 47.6762 35.7175 46.8588 37.2378Z" fill="#EAE0F2"/>
<path d="M43.3177 35.7953L40.9308 35.8473C40.4702 35.8574 40.076 35.3119 40.0522 34.6316C40.0284 33.9513 40.3838 33.3895 40.8444 33.3794L43.2314 33.3274C43.692 33.3174 44.0862 33.8628 44.11 34.5432C44.1338 35.2235 43.7783 35.7853 43.3177 35.7953Z" fill="#773DAD"/>
<path d="M46.4866 44.8034L51.2431 47.7196L51.744 53.9267L46.098 52.2086L46.4866 44.8034Z" fill="#EAE0F2"/>
<path d="M45.1582 16.0537C40.0544 16.0537 34.1888 11.5854 28.9992 13.7084C13.2865 20.1364 15.4495 9.38013 10.9353 5.37978L11.0835 5.14526C14.5009 15.4297 17.593 31.8176 29.0675 13.4356C31.9418 8.83096 41.3753 15.9485 46.9282 15.7385L46.9378 16.0204C46.3514 16.0427 45.7582 16.0538 45.1582 16.0537Z" fill="#F2F2F2"/>
<path d="M57.4083 16.6861C53.3397 19.1172 45.2443 18.3492 42.7321 22.5136C35.1257 35.1223 28.6183 25.5175 21.9585 24.4788L21.8971 24.2212C28.5641 24.6575 35.7154 23.9806 42.5777 22.2636C48.7792 20.7121 54.3121 18.4041 58.578 15.5917L58.8014 15.8118C58.351 16.1089 57.8866 16.4003 57.4083 16.6861Z" fill="#F2F2F2"/>
<path d="M13.1511 16.1325C13.7403 16.1325 14.218 15.6272 14.218 15.0038C14.218 14.3805 13.7403 13.8752 13.1511 13.8752C12.5619 13.8752 12.0843 14.3805 12.0843 15.0038C12.0843 15.6272 12.5619 16.1325 13.1511 16.1325Z" fill="#EAE0F2"/>
<path d="M46.2398 6.96579C46.829 6.96579 47.3066 6.46048 47.3066 5.83714C47.3066 5.21381 46.829 4.7085 46.2398 4.7085C45.6506 4.7085 45.1729 5.21381 45.1729 5.83714C45.1729 6.46048 45.6506 6.96579 46.2398 6.96579Z" fill="#EAE0F2"/>
<path d="M22.9184 20.6877C22.4307 20.9441 21.9315 20.3339 22.4286 20.0889C22.9163 19.8325 23.4155 20.4428 22.9184 20.6877Z" fill="#EAE0F2"/>
<path d="M40.9783 0.660518C40.4905 0.916906 39.9913 0.30668 40.4884 0.0616764C40.9762 -0.194697 41.4754 0.415529 40.9783 0.660518Z" fill="#EAE0F2"/>
<path d="M51.622 12.5345L51.3117 12.4808L51.3796 12.2359L51.1728 12.2002L51.1047 12.4451L50.7944 12.3915L50.7491 12.5547L51.0594 12.6084L50.9914 12.8532L51.1983 12.889L51.2663 12.6441L51.5767 12.6978L51.622 12.5345Z" fill="#EAE0F2"/>
<path d="M33.0654 1.91209C31.5426 1.94621 30.3808 4.02533 30.4088 4.83665L30.4602 6.30548L35.974 6.18536L35.9226 4.71653C35.8937 3.90522 34.5882 1.87986 33.0654 1.91209Z" fill="#3F3D56"/>
<path d="M36.3486 57.5319L33.844 57.5864C33.4635 57.6019 33.0871 57.5186 32.7723 57.3494C32.5003 57.1898 32.3755 56.974 32.4302 56.7573L32.9231 54.8031C33.016 54.4345 33.5886 54.1558 34.2845 54.1406L35.6677 54.1105C36.3636 54.0953 36.9549 54.3486 37.0734 54.7127L37.7022 56.6424C37.772 56.8564 37.6625 57.0773 37.4021 57.2485C37.0996 57.4312 36.7296 57.5307 36.3486 57.5319V57.5319Z" fill="#3F3D56"/>
<path d="M37.4655 11.2627L29.326 11.44L30.86 55.2656L38.9995 55.0882L37.4655 11.2627Z" fill="#EAE0F2"/>
<path d="M34.2087 32.4769L34.1701 30.8971L34.6953 30.8869L34.7338 32.4616L35.2098 55.4127L34.6845 55.4242" fill="#3F3D56"/>
<path d="M39.068 15.2737L28.0394 15.5139C27.8471 14.5969 28.0959 10.3178 29.0887 9.36105L29.3608 8.219L36.9758 8.0531L37.3742 9.16616C38.4677 9.9003 39.0316 14.191 39.068 15.2737Z" fill="#EAE0F2"/>
<path d="M37.2165 8.18786L29.3582 8.35906C29.0682 8.36537 28.8287 8.24523 28.8233 8.0907C28.8226 8.06844 28.8267 8.04625 28.8355 8.02509L30.0561 5.05835C30.1084 4.93131 30.3164 4.83802 30.5593 4.83273L35.7707 4.7192C36.0135 4.71391 36.2278 4.79801 36.2889 4.92258L37.7151 7.83165C37.7881 7.98044 37.6196 8.13527 37.3388 8.17747C37.2985 8.18351 37.2576 8.18699 37.2165 8.18786V8.18786Z" fill="#EAE0F2"/>
<path d="M30.1334 32.2754C30.0625 32.2514 29.9955 32.2208 29.9338 32.1842C29.8454 32.1353 29.7723 32.071 29.7203 31.9964C29.6682 31.9218 29.6384 31.8387 29.6333 31.7536L29.3478 23.5955C29.336 23.2578 29.7551 22.9737 30.282 22.9622L37.317 22.8089C37.844 22.7974 38.2822 23.0629 38.2941 23.4006L38.5796 31.5588C38.5804 31.6439 38.5566 31.7282 38.5098 31.8049C38.463 31.8817 38.3946 31.949 38.3097 32.0017C38.1218 32.1225 37.8876 32.1896 37.6453 32.192L30.6105 32.3452C30.4469 32.3496 30.2841 32.3257 30.1334 32.2754V32.2754Z" fill="#3F3D56"/>
<path d="M34.6361 7.66284L32.2491 7.71484C31.7885 7.72488 31.3991 7.31431 31.381 6.79975C31.363 6.28518 31.7232 5.85828 32.1838 5.84825L34.5708 5.79625C35.0314 5.78621 35.4208 6.19678 35.4388 6.71134C35.4569 7.22591 35.0967 7.65281 34.6361 7.66284Z" fill="#773DAD"/>
<path d="M91.0581 56.0492H88.2796V40.1193C90.6037 39.9878 92.3504 39.4264 92.3504 38.7536C92.3504 37.9832 90.0604 37.3586 87.2355 37.3586C84.4107 37.3586 82.1207 37.9832 82.1207 38.7536C82.1207 39.4328 83.9014 39.9984 86.2589 40.1228V56.0492H83.4805C83.2125 56.0492 82.9556 56.1331 82.7661 56.2826C82.5766 56.4321 82.4702 56.6349 82.4702 56.8463C82.4702 57.0577 82.5766 57.2604 82.7661 57.4099C82.9556 57.5594 83.2125 57.6434 83.4805 57.6434H91.0581C91.326 57.6434 91.583 57.5594 91.7725 57.4099C91.9619 57.2604 92.0684 57.0577 92.0684 56.8463C92.0684 56.6349 91.9619 56.4321 91.7725 56.2826C91.583 56.1331 91.326 56.0492 91.0581 56.0492Z" fill="#EAE0F2"/>
<path d="M85.4808 47.962L84.5681 48.7467L80.2976 46.3428L81.6445 45.1847L85.4808 47.962Z" fill="#A0616A"/>
<path d="M83.1471 50.033C83.156 50.2085 83.2091 50.3808 83.3031 50.54C83.397 50.6992 83.5301 50.8421 83.6946 50.9604L83.7348 50.9899L84.9318 49.9608L86.6772 48.4599L85.3887 47.5266L85.156 47.7271L85.1317 47.7477L83.9721 48.1805L83.7264 48.2726L83.6844 48.2881L83.5918 49.0717V49.0725C83.4407 49.2013 83.3235 49.3526 83.2471 49.5175C83.1708 49.6824 83.1367 49.8576 83.1471 50.033V50.033Z" fill="#2F2E41"/>
<path d="M90.2092 55.7897L88.9176 56.0993L86.7896 52.3162L88.6958 51.8594L90.2092 55.7897Z" fill="#A0616A"/>
<path d="M86.738 57.6548L86.7538 57.6968L90.9184 56.6986L90.4101 55.3783L90.0812 55.4572L90.0467 55.4653L88.4984 55.3533L88.4526 55.3503L87.8667 55.988C87.4369 56.091 87.0765 56.3244 86.8649 56.637C86.6532 56.9495 86.6075 57.3157 86.738 57.6548H86.738Z" fill="#2F2E41"/>
<path d="M79.5589 35.9821C79.5589 35.9821 71.3128 42.2634 76.5258 44.2077H78.1371C78.4873 43.3096 79.0257 42.464 79.7298 41.7061C79.8821 41.5489 80.4524 41.5808 80.6107 41.4276C81.5778 40.4924 82.6261 39.6891 83.3502 39.721L83.177 44.0611L82.8967 45.6092C82.7495 46.4094 86.9036 53.397 86.9036 53.397L89.5146 52.5874C89.5146 52.5874 86.7942 46.8321 86.7624 46.0024L88.9424 36.8794L79.5589 35.9821Z" fill="#2F2E41"/>
<path d="M78.8713 36.2918C78.9133 36.3392 78.9682 36.3784 79.032 36.4068C79.1371 36.4537 79.2509 36.4871 79.3693 36.5056C81.226 36.8381 87.2911 37.5274 88.8656 37.1986C89.059 37.1588 89.1851 37.1028 89.2262 37.029C89.358 36.7961 89.3412 35.8119 89.2636 34.6236C89.2496 34.401 88.9385 34.1599 88.9198 33.927C88.9067 33.7522 89.1861 33.5879 89.1711 33.4102C89.0683 32.2086 88.9357 30.9841 88.8469 30.2101C88.7908 29.7125 88.7525 29.4014 88.7525 29.4014L89.7103 24.6369L89.6654 24.5787L89.615 24.5588L86.5268 23.3528L86.3586 23.0137C86.3099 22.916 86.2251 22.8321 86.1154 22.7729C86.0056 22.7136 85.8758 22.6817 85.7428 22.6812L83.7087 22.6746C83.6031 22.6741 83.499 22.6935 83.4049 22.7312C83.3108 22.7689 83.2294 22.8238 83.1676 22.8913L82.6163 23.4936L78.9722 25.3365L78.9862 25.3704L80.6962 29.4758L80.7046 29.7958V29.7965L80.7681 32.3693L80.5915 32.718L80.7905 33.29C80.7905 33.29 80.699 33.9586 80.2084 34.4555C79.7636 34.9067 79.1974 35.377 78.9414 35.7589V35.7596C78.7993 35.9704 78.7517 36.1533 78.8713 36.2918Z" fill="#773DAD"/>
<path d="M76.1299 43.8346L76.5707 44.274C76.5707 44.274 80.6244 46.5115 80.7636 46.7206L81.4042 47.1988L82.9543 45.8916L82.1482 45.0944C81.5031 44.4565 80.6696 43.9531 79.7207 43.6282V43.6282L78.4853 42.7634L76.1299 43.8346Z" fill="#2F2E41"/>
<path d="M90.7317 37.7759L89.9935 32.1386L89.7987 29.8184L91.8649 29.5237C91.8649 29.5237 91.783 31.1826 92.0537 32.1186C92.3208 33.0423 92.0891 37.6521 92.0726 37.7753C92.2244 37.8824 92.3314 38.0233 92.3794 38.1793C92.4275 38.3354 92.4143 38.4993 92.3417 38.6493C92.2692 38.7994 92.1406 38.9285 91.9729 39.0196C91.8053 39.1107 91.6066 39.1596 91.403 39.1596C91.1995 39.1597 91.0007 39.111 90.833 39.02C90.6652 38.929 90.5365 38.8 90.4637 38.65C90.3909 38.5 90.3776 38.3362 90.4255 38.1801C90.4733 38.024 90.5801 37.883 90.7317 37.7758V37.7759Z" fill="#A0616A"/>
<path d="M88.2713 29.2385L88.8469 30.2101L89.0478 30.5484L89.5888 32.7836L89.8588 33.0099L90.0915 33.7405L90.2008 33.7228L92.1724 33.4006L92.7471 33.307C92.8766 33.1367 92.9276 32.9364 92.8915 32.7399C92.8554 32.5434 92.7344 32.3627 92.549 32.2285C92.5097 32.2005 92.477 32.1732 92.478 32.1474C92.5107 30.5927 92.3901 27.7538 91.3015 26.5853C90.9558 26.2145 90.7484 25.8452 90.4466 25.5872C90.4456 25.5864 90.4456 25.5857 90.4447 25.5857L89.7103 24.637L89.6654 24.5787L89.615 24.5588L88.2713 29.2385Z" fill="#773DAD"/>
<path d="M84.8848 22.2752C86.3796 22.2752 87.5913 21.3192 87.5913 20.1399C87.5913 18.9606 86.3796 18.0046 84.8848 18.0046C83.39 18.0046 82.1783 18.9606 82.1783 20.1399C82.1783 21.3192 83.39 22.2752 84.8848 22.2752Z" fill="#A0616A"/>
<path d="M88.0986 19.6805C88.1779 19.3216 88.2397 18.8565 88.0126 18.4429C87.8207 18.0949 87.3407 17.7686 86.8072 17.8126C86.8325 17.7341 86.8297 17.6515 86.7991 17.5741C86.7684 17.4968 86.7112 17.4276 86.6338 17.3743C86.4601 17.2667 86.2576 17.1916 86.0417 17.1547C85.5402 17.0384 85.0207 16.9178 84.4843 16.9156C83.8823 16.913 83.3489 17.0757 83.0218 17.3626L83.0138 17.3719L82.9158 17.5566C82.9027 17.5813 82.8829 17.6036 82.8579 17.6218C82.8328 17.64 82.8031 17.6537 82.7707 17.6619C82.7383 17.6704 82.7038 17.673 82.6699 17.6698C82.636 17.6665 82.6034 17.6573 82.5745 17.643C82.5428 17.6276 82.5065 17.619 82.4693 17.618C82.4321 17.6171 82.3952 17.6238 82.3623 17.6375C82.3293 17.6513 82.3015 17.6716 82.2816 17.6964C82.2617 17.7212 82.2503 17.7497 82.2486 17.779L82.2434 17.8579L82.1029 17.8137C82.0677 17.8025 82.0293 17.7989 81.9917 17.8032C81.9542 17.8076 81.9188 17.8199 81.8892 17.8386C81.8596 17.8574 81.8369 17.8821 81.8234 17.9101C81.81 17.9382 81.8062 17.9685 81.8126 17.9981L81.8313 18.0918C81.8011 18.0875 81.7701 18.088 81.7402 18.0934C81.7102 18.0987 81.682 18.1087 81.657 18.1228C81.6214 18.1435 81.5949 18.1726 81.5815 18.2059C81.5682 18.2392 81.5685 18.275 81.5826 18.3082C81.6916 18.5534 81.8778 18.7728 82.1236 18.9458C82.234 19.0245 82.3576 19.0908 82.4909 19.1428C82.5187 19.1538 82.5475 19.1643 82.5774 19.1742C83.656 19.539 84.8101 19.7453 85.9827 19.7827C85.8718 19.9496 85.8002 20.131 85.7712 20.318C85.7552 20.4241 85.7763 20.5317 85.8323 20.629C85.8883 20.7264 85.977 20.8097 86.0887 20.8701C86.1372 20.892 86.1881 20.9104 86.2408 20.9251C86.2911 20.9397 86.3399 20.9575 86.3866 20.9783C86.4551 21.011 86.5114 21.0574 86.5499 21.1127C86.5884 21.1681 86.6076 21.2305 86.6057 21.2936C86.6038 21.3568 86.5808 21.4184 86.5391 21.4722C86.4973 21.5261 86.4382 21.5703 86.3679 21.6004C86.3679 21.6004 86.5693 21.7944 86.6015 21.7911C86.7298 21.7681 86.8458 21.714 86.9331 21.6363C87.5192 21.1873 87.9114 20.5297 88.0986 19.6805Z" fill="#2F2E41"/>
<path d="M108 57.825C108 57.8453 107.995 57.8654 107.985 57.8842C107.975 57.903 107.961 57.92 107.943 57.9344C107.924 57.9488 107.903 57.9601 107.879 57.9679C107.855 57.9756 107.83 57.9796 107.804 57.9795H0.196161C0.144136 57.9795 0.0942409 57.9632 0.0574537 57.9343C0.0206666 57.9053 0 57.866 0 57.825C0 57.784 0.0206666 57.7447 0.0574537 57.7157C0.0942409 57.6868 0.144136 57.6705 0.196161 57.6705H107.804C107.83 57.6704 107.855 57.6744 107.879 57.6821C107.903 57.6899 107.924 57.7012 107.943 57.7156C107.961 57.73 107.975 57.747 107.985 57.7658C107.995 57.7846 108 57.8047 108 57.825Z" fill="white"/>
<path d="M46.286 42.2032C46.0015 42.2092 45.7256 42.1259 45.5189 41.9715C45.3122 41.8172 45.1915 41.6045 45.1833 41.38L45.0996 38.9896C45.0921 38.7653 45.1978 38.5477 45.3935 38.3848C45.5891 38.2219 45.8587 38.1269 46.1431 38.1207C46.4275 38.1145 46.7033 38.1976 46.9101 38.3518C47.1168 38.5059 47.2376 38.7185 47.2458 38.9429L47.3294 41.3333C47.337 41.5577 47.2313 41.7754 47.0357 41.9385C46.8401 42.1016 46.5705 42.1968 46.286 42.2032V42.2032Z" fill="#3F3D56"/>
<path d="M93.6276 50.9397C91.9969 50.9397 90.2096 50.8911 88.2657 50.7938C78.211 50.2901 65.1872 48.5388 51.5933 45.8625C37.9995 43.1863 25.4595 39.9048 16.2837 36.6227C11.8139 35.0238 8.38334 33.5104 6.08744 32.1243C3.65668 30.6569 2.59343 29.3779 2.92711 28.3228C3.57726 26.2674 9.33406 25.8177 14.0489 25.8024L14.0505 26.1013C7.57576 26.1223 3.75597 26.937 3.29476 28.3952C2.70727 30.2525 7.49862 33.152 16.4402 36.3504C25.5958 39.6253 38.1127 42.9006 51.6851 45.5726C65.2574 48.2445 78.2572 49.9928 88.2897 50.4955C98.0873 50.9865 104.044 50.2028 104.631 48.3455C105.119 46.8035 101.904 44.5318 95.5774 41.9489L95.7516 41.6835C100.348 43.5603 105.684 46.252 104.999 48.4179C104.665 49.473 102.965 50.2079 99.9453 50.6023C98.224 50.827 96.1098 50.9397 93.6276 50.9397Z" fill="white"/>
<path d="M7.0798 48.9815C5.78579 48.9815 4.94454 48.7279 4.5722 48.2235C3.83793 47.2291 5.06769 45.4842 8.22722 43.0373L8.49263 43.2506C5.55775 45.5236 4.28169 47.2362 4.89952 48.0731C5.29049 48.6024 6.45401 48.7922 8.26502 48.6215C10.0628 48.4522 12.4454 47.9475 15.3465 47.1215C21.319 45.4209 28.8121 42.5524 36.4456 39.0444C44.0787 35.5364 50.9377 31.8091 55.7591 28.549C56.6851 27.9227 57.5256 27.3202 58.2571 26.7584C59.2173 26.0389 60.1031 25.2599 60.9061 24.4291C61.9876 23.2706 62.3526 22.3785 61.9617 21.849C61.3087 20.9648 58.5659 21.048 54.2381 22.0835L54.1282 21.7974C58.7715 20.6866 61.5172 20.6532 62.289 21.6986C62.7686 22.3481 62.406 23.3264 61.2112 24.6064C60.3959 25.4504 59.4964 26.2416 58.5214 26.9726C57.7842 27.5388 56.9378 28.1456 56.0056 28.776C51.1674 32.0474 44.2886 35.7859 36.6362 39.3026C28.9837 42.8195 21.4685 45.6962 15.4751 47.4027C12.547 48.2364 10.1363 48.7463 8.30992 48.9183C7.90182 48.9584 7.49106 48.9796 7.0798 48.9815V48.9815Z" fill="white"/>
<path d="M76.2305 36.7089C75.2941 36.6942 70.2644 36.5803 69.4396 36.6083C69.393 36.4794 67.8294 38.0603 67.7914 38.0701C67.7661 38.0912 67.7476 38.1168 67.7375 38.1448C67.7274 38.1727 67.7261 38.2022 67.7336 38.2307C67.7411 38.2591 67.7572 38.2857 67.7806 38.3082C67.804 38.3307 67.8339 38.3484 67.8678 38.3598C67.9597 38.4038 76.0682 38.2855 76.1664 38.3009C76.2089 38.3004 76.2504 38.2904 76.286 38.2721C76.3216 38.2538 76.3499 38.2279 76.3677 38.1975L76.4219 38.1017C76.4275 37.9379 76.4955 37.1005 76.4345 36.9574C76.4495 36.9305 76.4557 36.9011 76.4528 36.8718C76.4498 36.8426 76.4376 36.8144 76.4174 36.7897C76.3972 36.7651 76.3695 36.7448 76.3369 36.7307C76.3042 36.7166 76.2677 36.7091 76.2305 36.7089V36.7089Z" fill="#EAE0F2"/>
<path opacity="0.17" d="M76.4219 38.1015C76.3743 38.1916 76.3134 38.3048 76.1664 38.3006L67.9534 38.3732C67.9145 38.3729 67.8765 38.3647 67.8428 38.3494C67.8091 38.3341 67.781 38.3123 67.7612 38.286C67.7413 38.2597 67.7304 38.2298 67.7294 38.1992C67.7285 38.1686 67.7375 38.1383 67.7557 38.1113L76.4219 38.1015Z" fill="black"/>
<path d="M69.478 36.5889C69.3896 36.4683 67.1939 27.8966 67.0106 27.825L65.5115 26.3781L65.3775 26.2986C65.1911 26.2179 64.7442 26.2725 64.7844 26.497C65.1366 27.8291 67.4019 35.4164 67.4516 36.5993L67.7243 38.1063C67.7291 38.1319 67.7407 38.1565 67.7584 38.1783C67.776 38.2002 67.7992 38.219 67.8266 38.2333C67.854 38.2477 67.8848 38.2574 67.9172 38.2617C67.9496 38.2661 67.9828 38.2651 68.0147 38.2587C68.0928 38.252 68.1675 38.2294 68.2312 38.1931C68.2949 38.1568 68.3455 38.108 68.3781 38.0515C68.3985 37.9984 69.5807 36.6198 69.478 36.5889Z" fill="#EAE0F2"/>
<path opacity="0.17" d="M65.5111 26.3782L68.3784 38.0518C68.2825 38.2433 67.8338 38.3775 67.7293 38.1263C67.7275 38.1259 64.7878 26.5042 64.7848 26.4972C64.7535 26.2175 65.3393 26.2087 65.5111 26.3782Z" fill="black"/>
<path d="M65.5975 26.8555L67.0537 28.4569L68.6882 34.5811L67.9284 35.104L65.5975 26.8555Z" fill="#773DAD"/>
<path d="M75.2905 37.5346L75.6933 37.5476C75.6996 37.4545 75.7191 37.3623 75.7514 37.2726C75.8121 37.0454 75.8664 36.7754 75.615 36.7764C75.4445 36.7634 75.3864 36.9338 75.3561 37.1191C75.3483 37.2588 75.3264 37.3977 75.2905 37.5346Z" fill="#2F2E41"/>
<path d="M72.9793 37.1066L73.2508 37.1145L73.3822 37.1185C73.3797 37.0051 73.4466 36.7713 73.2837 36.7136C73.2578 36.7048 73.2298 36.7004 73.2016 36.7007C73.0488 36.6937 73.0033 36.7852 72.9894 36.8907C72.9806 36.9544 72.9843 37.022 72.9818 37.0747C72.9818 37.0857 72.9806 37.0966 72.9793 37.1066Z" fill="#2F2E41"/>
<path d="M72.1748 37.0807L72.4476 37.0896L72.5777 37.0936C72.5752 36.9633 72.6623 36.6787 72.3971 36.6748C72.1521 36.6638 72.1837 36.9095 72.1773 37.0488C72.1773 37.0598 72.1761 37.0707 72.1748 37.0807Z" fill="#2F2E41"/>
<path d="M71.3704 37.0558L71.6419 37.0637L71.7732 37.0677C71.7707 36.9384 71.8578 36.6538 71.5926 36.6499C71.3476 36.6379 71.3792 36.8837 71.3729 37.0239C71.3729 37.0349 71.3716 37.0458 71.3704 37.0558Z" fill="#2F2E41"/>
<path d="M70.5659 37.0298L70.8386 37.0388L70.9687 37.0428C70.9662 36.9125 71.0533 36.6289 70.7881 36.6239C70.5431 36.613 70.5747 36.8587 70.5684 36.998C70.5684 37.0089 70.5671 37.0199 70.5659 37.0298Z" fill="#2F2E41"/>
<path d="M69.7614 37.0049L70.0329 37.0129L70.1642 37.0169C70.1617 36.8975 70.235 36.6478 70.0405 36.605H70.0392C70.0212 36.6008 70.0025 36.5988 69.9837 36.599C69.9607 36.5974 69.9376 36.5991 69.9155 36.604H69.9142C69.745 36.6388 69.769 36.8477 69.7639 36.9731C69.7639 36.984 69.7626 36.995 69.7614 37.0049Z" fill="#2F2E41"/>
<path d="M74.4784 36.9372L74.8813 36.9501C74.8813 36.9382 74.8813 36.9252 74.8825 36.9103C74.8925 36.8346 74.8942 36.7584 74.8876 36.6825C74.8737 36.5989 74.8282 36.5333 74.7007 36.5313C74.5706 36.5253 74.5188 36.591 74.4986 36.6755C74.4939 36.6899 74.4905 36.7046 74.4885 36.7193V36.7203C74.4784 36.7979 74.4847 36.8815 74.4784 36.9372Z" fill="#2F2E41"/>
<path d="M73.6739 36.9113L74.0768 36.9242C74.0853 36.8388 74.0879 36.7531 74.0844 36.6675C74.073 36.58 74.0288 36.5084 73.8962 36.5064C73.7623 36.4994 73.7105 36.571 73.6903 36.6596C73.6714 36.7451 73.6815 36.8476 73.6739 36.9113Z" fill="#2F2E41"/>
<path d="M72.8694 36.8864L72.9894 36.8903L73.2723 36.8993C73.2711 36.8515 73.2824 36.7819 73.2837 36.7133C73.2848 36.6927 73.2839 36.6721 73.2812 36.6516C73.2711 36.5591 73.2294 36.4825 73.0917 36.4805C72.9515 36.4745 72.9023 36.5511 72.8846 36.6446C72.8669 36.7282 72.877 36.8247 72.8694 36.8864Z" fill="#2F2E41"/>
<path d="M74.486 37.5091L74.8888 37.521C74.8876 37.3917 74.9734 37.1072 74.7082 37.1032C74.443 37.0903 74.5011 37.3788 74.486 37.5091Z" fill="#2F2E41"/>
<path d="M73.6815 37.4832L74.0844 37.4961C74.0831 37.3658 74.169 37.0813 73.9038 37.0773C73.6386 37.0654 73.6967 37.3539 73.6815 37.4832Z" fill="#2F2E41"/>
<path d="M72.877 37.4583L73.2799 37.4702C73.2786 37.3777 73.3228 37.2066 73.2508 37.1151C73.2351 37.0948 73.2127 37.0783 73.1861 37.0672C73.1594 37.0562 73.1294 37.0511 73.0993 37.0524C73.0579 37.049 73.0164 37.0571 72.9818 37.0753C72.853 37.1419 72.8896 37.3528 72.877 37.4583Z" fill="#2F2E41"/>
<path d="M72.0725 37.4324L72.4754 37.4453C72.4741 37.3528 72.5171 37.1827 72.4476 37.0901C72.4319 37.0696 72.4094 37.0528 72.3825 37.0415C72.3555 37.0303 72.3252 37.0251 72.2948 37.0265C72.2535 37.0229 72.2118 37.031 72.1774 37.0494C72.0485 37.118 72.0852 37.3279 72.0725 37.4324Z" fill="#2F2E41"/>
<path d="M71.268 37.4075L71.6709 37.4194C71.6696 37.3269 71.7138 37.1558 71.6419 37.0642C71.6262 37.044 71.6038 37.0274 71.5771 37.0164C71.5504 37.0054 71.5204 37.0002 71.4903 37.0016C71.449 36.9981 71.4074 37.0062 71.3729 37.0245C71.244 37.0911 71.2807 37.302 71.268 37.4075Z" fill="#2F2E41"/>
<path d="M70.4636 37.3816L70.8664 37.3945C70.8652 37.302 70.9081 37.1319 70.8386 37.0393C70.8231 37.0187 70.8006 37.0018 70.7736 36.9906C70.7466 36.9793 70.7163 36.9742 70.6858 36.9757C70.6445 36.9721 70.6028 36.9802 70.5684 36.9986C70.4396 37.0672 70.4762 37.2771 70.4636 37.3816Z" fill="#2F2E41"/>
<path d="M69.6591 37.3567L70.062 37.3686C70.0607 37.2761 70.1036 37.106 70.0329 37.0134C70.0173 36.9931 69.995 36.9765 69.9682 36.9654C69.9415 36.9544 69.9115 36.9493 69.8814 36.9508C69.84 36.9473 69.7984 36.9554 69.7639 36.9736C69.6351 37.0413 69.6717 37.2512 69.6591 37.3567Z" fill="#2F2E41"/>
<path d="M74.2089 36.4362L77.2795 31.3128L78.4404 29.1756L76.6158 28.3559C76.6158 28.3559 75.9943 29.942 75.3448 30.7539C74.7038 31.555 72.9808 35.9636 72.9444 36.0842C72.7562 36.1454 72.596 36.2502 72.4849 36.3848C72.3739 36.5194 72.3173 36.6774 72.3225 36.838C72.3278 36.9985 72.3947 37.154 72.5144 37.2839C72.6341 37.4138 72.801 37.512 72.9929 37.5654C73.1849 37.6188 73.3929 37.625 73.5894 37.5832C73.786 37.5413 73.9617 37.4534 74.0935 37.331C74.2253 37.2086 74.3069 37.0575 74.3275 36.8978C74.3481 36.738 74.3068 36.577 74.2089 36.4362H74.2089Z" fill="#A0616A"/>
<path d="M74.1902 31.6927L76.5124 32.798L77.0391 32.17L77.3898 32.0273L78.8415 30.0607L80.1249 29.0291L81.8207 24.7527L79.6143 25.0138L79.6115 25.0146C79.2184 25.179 78.8668 25.4731 78.3848 25.7322C76.866 26.5488 75.5564 29.1948 74.9325 30.6702C74.9223 30.6944 74.8803 30.7113 74.8315 30.7277C74.6001 30.8058 74.41 30.9444 74.2931 31.1202C74.1763 31.296 74.14 31.4982 74.1902 31.6927L74.1902 31.6927Z" fill="#773DAD"/>
</g>
<defs>
<clipPath id="clip0_318_4152">
<rect width="108" height="57.98" fill="white"/>
</clipPath>
</defs>
</svg>
