<svg width="67" height="58" viewBox="0 0 67 58" fill="none" xmlns="http://www.w3.org/2000/svg">
<g clip-path="url(#clip0_318_4064)">
<path d="M62.2948 57.5643C62.2945 57.6104 62.2762 57.6545 62.2437 57.6872C62.2277 57.7032 62.2087 57.7159 62.1877 57.7245C62.1668 57.7331 62.1444 57.7375 62.1217 57.7374H61.4259C61.4031 57.7375 61.3806 57.7331 61.3595 57.7244C61.3385 57.7158 61.3194 57.703 61.3033 57.6869C61.2872 57.6708 61.2744 57.6517 61.2658 57.6307C61.2571 57.6096 61.2527 57.5871 61.2528 57.5643V36.5209C61.2528 36.057 61.097 35.6805 60.9057 35.6797H8.76102C8.56888 35.6805 8.41396 36.057 8.41309 36.5209V57.4354C8.41295 57.4784 8.39685 57.5198 8.36791 57.5516C8.33897 57.5835 8.29925 57.6034 8.25644 57.6076C8.11623 57.6215 7.97602 57.6336 7.83668 57.6448C7.83322 57.6448 7.82976 57.6457 7.82629 57.6457C7.75013 57.6526 7.67397 57.6578 7.59781 57.6639H7.59694C7.55713 57.592 7.51905 57.5185 7.4801 57.4449C7.46762 57.4199 7.4611 57.3924 7.46106 57.3644V35.4295C7.46106 35.3014 7.46625 35.1725 7.47491 35.0453C7.48726 34.8705 7.50892 34.6966 7.53982 34.5242C7.68609 33.7202 8.0167 33.1758 8.39232 33.1741H61.2735C61.3283 33.1744 61.3825 33.1859 61.4328 33.2078C61.5066 33.2405 61.5733 33.2872 61.6292 33.3454C61.7052 33.4243 61.7701 33.5131 61.8222 33.6094C62.0075 33.9357 62.1399 34.4221 62.1866 34.9881C62.1866 34.9933 62.1875 34.9985 62.1875 35.0037C62.1996 35.1439 62.2057 35.2867 62.2048 35.4295L62.2169 37.2843L62.2247 38.3904L62.2481 41.861L62.2567 43.0934L62.2948 57.5643Z" fill="#E6E6E6"/>
<path d="M66.8969 57.9522L43.0312 57.9788C43.0039 57.9787 42.9777 57.9678 42.9585 57.9485C42.9392 57.9292 42.9284 57.903 42.9284 57.8757C42.9284 57.8484 42.9392 57.8223 42.9585 57.803C42.9777 57.7836 43.0039 57.7728 43.0312 57.7727L66.8969 57.7461C66.9242 57.7462 66.9504 57.757 66.9696 57.7764C66.9889 57.7957 66.9997 57.8219 66.9997 57.8491C66.9997 57.8764 66.9889 57.9026 66.9696 57.9219C66.9504 57.9412 66.9242 57.9521 66.8969 57.9522Z" fill="white"/>
<path d="M37.2737 27.0258H33.0468C32.987 27.0259 32.9297 27.0497 32.8875 27.092C32.8453 27.1344 32.8216 27.1918 32.8217 27.2516V33.9288H37.4995V27.2516C37.4995 27.2219 37.4937 27.1925 37.4823 27.1651C37.471 27.1377 37.4544 27.1128 37.4334 27.0919C37.4124 27.0709 37.3875 27.0543 37.3601 27.0429C37.3327 27.0316 37.3034 27.0258 37.2737 27.0258ZM35.1745 30.8197C35.0423 30.8191 34.9157 30.7663 34.8222 30.6728C34.7288 30.5794 34.676 30.4528 34.6754 30.3206V29.5504C34.6754 29.418 34.728 29.2911 34.8216 29.1975C34.9152 29.1039 35.0421 29.0513 35.1745 29.0513C35.3069 29.0513 35.4338 29.1039 35.5274 29.1975C35.621 29.2911 35.6736 29.418 35.6736 29.5504V30.3206C35.673 30.4528 35.6202 30.5794 35.5268 30.6728C35.4333 30.7663 35.3067 30.8191 35.1745 30.8197V30.8197Z" fill="#2F2E41"/>
<path d="M44.2731 16.6052H26.2048C26.0496 16.6055 25.9008 16.6672 25.791 16.777C25.6812 16.8868 25.6194 17.0356 25.6192 17.1908V29.3834C25.6194 29.5386 25.6811 29.6875 25.7909 29.7973C25.9007 29.9071 26.0495 29.9688 26.2048 29.969H44.2731C44.4283 29.9688 44.5772 29.9071 44.687 29.7973C44.7968 29.6875 44.8585 29.5386 44.8587 29.3834V17.1908C44.8584 17.0356 44.7966 16.8868 44.6869 16.777C44.5771 16.6672 44.4283 16.6055 44.2731 16.6052V16.6052Z" fill="#773DAD"/>
<path d="M44.122 17.0281H26.3555C26.2724 17.0283 26.1927 17.0614 26.134 17.1202C26.0753 17.1791 26.0423 17.2588 26.0423 17.3419V29.2322C26.0424 29.3153 26.0755 29.3948 26.1342 29.4535C26.1929 29.5122 26.2725 29.5453 26.3555 29.5454H44.122C44.205 29.5453 44.2846 29.5122 44.3433 29.4535C44.402 29.3948 44.435 29.3153 44.4351 29.2322V17.3419C44.4351 17.2588 44.4022 17.1791 44.3434 17.1202C44.2847 17.0614 44.2051 17.0283 44.122 17.0281V17.0281Z" fill="white"/>
<path d="M32.8071 33.7152V34.3594C32.8072 34.3928 32.8205 34.4248 32.8441 34.4484C32.8677 34.472 32.8997 34.4853 32.9331 34.4854H37.388C37.4214 34.4852 37.4533 34.4719 37.4769 34.4483C37.5005 34.4247 37.5138 34.3928 37.514 34.3594V33.7152H32.8071Z" fill="#773DAD"/>
<path d="M40.6616 34.7095H30.0915C30.0626 34.7095 30.034 34.7031 30.0079 34.6906C29.9818 34.6782 29.9588 34.6601 29.9405 34.6376C29.9223 34.6151 29.9093 34.5889 29.9025 34.5608C29.8957 34.5326 29.8953 34.5033 29.9013 34.475L30.0653 33.6961C30.0746 33.6525 30.0986 33.6134 30.1332 33.5853C30.1678 33.5572 30.2109 33.5418 30.2555 33.5417H40.4976C40.5422 33.5418 40.5854 33.5572 40.62 33.5853C40.6546 33.6134 40.6786 33.6525 40.6879 33.6961L40.8519 34.475C40.8579 34.5033 40.8574 34.5326 40.8506 34.5608C40.8438 34.5889 40.8308 34.6151 40.8126 34.6376C40.7944 34.6601 40.7714 34.6782 40.7453 34.6906C40.7191 34.7031 40.6906 34.7095 40.6616 34.7095V34.7095Z" fill="#2F2E41"/>
<path d="M30.6139 33.6819H30.3728C30.3495 33.6819 30.3306 33.7009 30.3306 33.7242V33.835C30.3306 33.8584 30.3495 33.8773 30.3728 33.8773H30.6139C30.6372 33.8773 30.6561 33.8584 30.6561 33.835V33.7242C30.6561 33.7009 30.6372 33.6819 30.6139 33.6819Z" fill="#773DAD"/>
<path d="M31.265 33.6819H31.0239C31.0006 33.6819 30.9817 33.7009 30.9817 33.7242V33.835C30.9817 33.8584 31.0006 33.8773 31.0239 33.8773H31.265C31.2883 33.8773 31.3072 33.8584 31.3072 33.835V33.7242C31.3072 33.7009 31.2883 33.6819 31.265 33.6819Z" fill="#773DAD"/>
<path d="M31.9161 33.6819H31.6751C31.6517 33.6819 31.6328 33.7009 31.6328 33.7242V33.835C31.6328 33.8584 31.6517 33.8773 31.6751 33.8773H31.9161C31.9394 33.8773 31.9584 33.8584 31.9584 33.835V33.7242C31.9584 33.7009 31.9394 33.6819 31.9161 33.6819Z" fill="#773DAD"/>
<path d="M32.5672 33.6819H32.3261C32.3028 33.6819 32.2839 33.7009 32.2839 33.7242V33.835C32.2839 33.8584 32.3028 33.8773 32.3261 33.8773H32.5672C32.5905 33.8773 32.6094 33.8584 32.6094 33.835V33.7242C32.6094 33.7009 32.5905 33.6819 32.5672 33.6819Z" fill="#773DAD"/>
<path d="M33.2183 33.6819H32.9772C32.9539 33.6819 32.935 33.7009 32.935 33.7242V33.835C32.935 33.8584 32.9539 33.8773 32.9772 33.8773H33.2183C33.2416 33.8773 33.2605 33.8584 33.2605 33.835V33.7242C33.2605 33.7009 33.2416 33.6819 33.2183 33.6819Z" fill="#773DAD"/>
<path d="M33.8694 33.6819H33.6283C33.605 33.6819 33.5861 33.7009 33.5861 33.7242V33.835C33.5861 33.8584 33.605 33.8773 33.6283 33.8773H33.8694C33.8927 33.8773 33.9116 33.8584 33.9116 33.835V33.7242C33.9116 33.7009 33.8927 33.6819 33.8694 33.6819Z" fill="#773DAD"/>
<path d="M34.5205 33.6819H34.2794C34.2561 33.6819 34.2372 33.7009 34.2372 33.7242V33.835C34.2372 33.8584 34.2561 33.8773 34.2794 33.8773H34.5205C34.5438 33.8773 34.5627 33.8584 34.5627 33.835V33.7242C34.5627 33.7009 34.5438 33.6819 34.5205 33.6819Z" fill="#773DAD"/>
<path d="M35.1715 33.6819H34.9305C34.9072 33.6819 34.8882 33.7009 34.8882 33.7242V33.835C34.8882 33.8584 34.9072 33.8773 34.9305 33.8773H35.1715C35.1949 33.8773 35.2138 33.8584 35.2138 33.835V33.7242C35.2138 33.7009 35.1949 33.6819 35.1715 33.6819Z" fill="#773DAD"/>
<path d="M35.8227 33.6819H35.5816C35.5583 33.6819 35.5394 33.7009 35.5394 33.7242V33.835C35.5394 33.8584 35.5583 33.8773 35.5816 33.8773H35.8227C35.846 33.8773 35.8649 33.8584 35.8649 33.835V33.7242C35.8649 33.7009 35.846 33.6819 35.8227 33.6819Z" fill="#773DAD"/>
<path d="M36.4737 33.6819H36.2327C36.2093 33.6819 36.1904 33.7009 36.1904 33.7242V33.835C36.1904 33.8584 36.2093 33.8773 36.2327 33.8773H36.4737C36.4971 33.8773 36.516 33.8584 36.516 33.835V33.7242C36.516 33.7009 36.4971 33.6819 36.4737 33.6819Z" fill="#773DAD"/>
<path d="M37.1248 33.6819H36.8838C36.8605 33.6819 36.8416 33.7009 36.8416 33.7242V33.835C36.8416 33.8584 36.8605 33.8773 36.8838 33.8773H37.1248C37.1482 33.8773 37.1671 33.8584 37.1671 33.835V33.7242C37.1671 33.7009 37.1482 33.6819 37.1248 33.6819Z" fill="#773DAD"/>
<path d="M37.776 33.6819H37.5349C37.5116 33.6819 37.4927 33.7009 37.4927 33.7242V33.835C37.4927 33.8584 37.5116 33.8773 37.5349 33.8773H37.776C37.7993 33.8773 37.8182 33.8584 37.8182 33.835V33.7242C37.8182 33.7009 37.7993 33.6819 37.776 33.6819Z" fill="#773DAD"/>
<path d="M38.427 33.6819H38.186C38.1627 33.6819 38.1437 33.7009 38.1437 33.7242V33.835C38.1437 33.8584 38.1627 33.8773 38.186 33.8773H38.427C38.4504 33.8773 38.4693 33.8584 38.4693 33.835V33.7242C38.4693 33.7009 38.4504 33.6819 38.427 33.6819Z" fill="#773DAD"/>
<path d="M39.0782 33.6819H38.8371C38.8138 33.6819 38.7949 33.7009 38.7949 33.7242V33.835C38.7949 33.8584 38.8138 33.8773 38.8371 33.8773H39.0782C39.1015 33.8773 39.1204 33.8584 39.1204 33.835V33.7242C39.1204 33.7009 39.1015 33.6819 39.0782 33.6819Z" fill="#773DAD"/>
<path d="M39.7292 33.6819H39.4882C39.4648 33.6819 39.4459 33.7009 39.4459 33.7242V33.835C39.4459 33.8584 39.4648 33.8773 39.4882 33.8773H39.7292C39.7526 33.8773 39.7715 33.8584 39.7715 33.835V33.7242C39.7715 33.7009 39.7526 33.6819 39.7292 33.6819Z" fill="#773DAD"/>
<path d="M40.3803 33.6819H40.1393C40.116 33.6819 40.097 33.7009 40.097 33.7242V33.835C40.097 33.8584 40.116 33.8773 40.1393 33.8773H40.3803C40.4037 33.8773 40.4226 33.8584 40.4226 33.835V33.7242C40.4226 33.7009 40.4037 33.6819 40.3803 33.6819Z" fill="#773DAD"/>
<path d="M30.6062 34.0075H30.3651C30.3418 34.0075 30.3229 34.0264 30.3229 34.0497V34.1606C30.3229 34.1839 30.3418 34.2028 30.3651 34.2028H30.6062C30.6295 34.2028 30.6484 34.1839 30.6484 34.1606V34.0497C30.6484 34.0264 30.6295 34.0075 30.6062 34.0075Z" fill="#773DAD"/>
<path d="M31.2573 34.0075H31.0163C30.9929 34.0075 30.974 34.0264 30.974 34.0497V34.1606C30.974 34.1839 30.9929 34.2028 31.0163 34.2028H31.2573C31.2806 34.2028 31.2995 34.1839 31.2995 34.1606V34.0497C31.2995 34.0264 31.2806 34.0075 31.2573 34.0075Z" fill="#773DAD"/>
<path d="M31.9084 34.0075H31.6674C31.644 34.0075 31.6251 34.0264 31.6251 34.0497V34.1606C31.6251 34.1839 31.644 34.2028 31.6674 34.2028H31.9084C31.9318 34.2028 31.9507 34.1839 31.9507 34.1606V34.0497C31.9507 34.0264 31.9318 34.0075 31.9084 34.0075Z" fill="#773DAD"/>
<path d="M32.5595 34.0075H32.3184C32.2951 34.0075 32.2762 34.0264 32.2762 34.0497V34.1606C32.2762 34.1839 32.2951 34.2028 32.3184 34.2028H32.5595C32.5828 34.2028 32.6017 34.1839 32.6017 34.1606V34.0497C32.6017 34.0264 32.5828 34.0075 32.5595 34.0075Z" fill="#773DAD"/>
<path d="M33.2106 34.0075H32.9696C32.9462 34.0075 32.9273 34.0264 32.9273 34.0497V34.1606C32.9273 34.1839 32.9462 34.2028 32.9696 34.2028H33.2106C33.2339 34.2028 33.2529 34.1839 33.2529 34.1606V34.0497C33.2529 34.0264 33.2339 34.0075 33.2106 34.0075Z" fill="#773DAD"/>
<path d="M33.8617 34.0075H33.6206C33.5973 34.0075 33.5784 34.0264 33.5784 34.0497V34.1606C33.5784 34.1839 33.5973 34.2028 33.6206 34.2028H33.8617C33.885 34.2028 33.9039 34.1839 33.9039 34.1606V34.0497C33.9039 34.0264 33.885 34.0075 33.8617 34.0075Z" fill="#773DAD"/>
<path d="M34.5128 34.0075H34.2717C34.2484 34.0075 34.2295 34.0264 34.2295 34.0497V34.1606C34.2295 34.1839 34.2484 34.2028 34.2717 34.2028H34.5128C34.5361 34.2028 34.555 34.1839 34.555 34.1606V34.0497C34.555 34.0264 34.5361 34.0075 34.5128 34.0075Z" fill="#773DAD"/>
<path d="M35.1639 34.0075H34.9228C34.8995 34.0075 34.8806 34.0264 34.8806 34.0497V34.1606C34.8806 34.1839 34.8995 34.2028 34.9228 34.2028H35.1639C35.1872 34.2028 35.2061 34.1839 35.2061 34.1606V34.0497C35.2061 34.0264 35.1872 34.0075 35.1639 34.0075Z" fill="#773DAD"/>
<path d="M35.815 34.0075H35.5739C35.5506 34.0075 35.5317 34.0264 35.5317 34.0497V34.1606C35.5317 34.1839 35.5506 34.2028 35.5739 34.2028H35.815C35.8383 34.2028 35.8572 34.1839 35.8572 34.1606V34.0497C35.8572 34.0264 35.8383 34.0075 35.815 34.0075Z" fill="#773DAD"/>
<path d="M36.466 34.0075H36.225C36.2017 34.0075 36.1827 34.0264 36.1827 34.0497V34.1606C36.1827 34.1839 36.2017 34.2028 36.225 34.2028H36.466C36.4894 34.2028 36.5083 34.1839 36.5083 34.1606V34.0497C36.5083 34.0264 36.4894 34.0075 36.466 34.0075Z" fill="#773DAD"/>
<path d="M37.1172 34.0075H36.8761C36.8528 34.0075 36.8339 34.0264 36.8339 34.0497V34.1606C36.8339 34.1839 36.8528 34.2028 36.8761 34.2028H37.1172C37.1405 34.2028 37.1594 34.1839 37.1594 34.1606V34.0497C37.1594 34.0264 37.1405 34.0075 37.1172 34.0075Z" fill="#773DAD"/>
<path d="M37.7683 34.0075H37.5272C37.5039 34.0075 37.485 34.0264 37.485 34.0497V34.1606C37.485 34.1839 37.5039 34.2028 37.5272 34.2028H37.7683C37.7916 34.2028 37.8105 34.1839 37.8105 34.1606V34.0497C37.8105 34.0264 37.7916 34.0075 37.7683 34.0075Z" fill="#773DAD"/>
<path d="M38.4193 34.0075H38.1783C38.155 34.0075 38.136 34.0264 38.136 34.0497V34.1606C38.136 34.1839 38.155 34.2028 38.1783 34.2028H38.4193C38.4427 34.2028 38.4616 34.1839 38.4616 34.1606V34.0497C38.4616 34.0264 38.4427 34.0075 38.4193 34.0075Z" fill="#773DAD"/>
<path d="M39.0705 34.0075H38.8294C38.8061 34.0075 38.7872 34.0264 38.7872 34.0497V34.1606C38.7872 34.1839 38.8061 34.2028 38.8294 34.2028H39.0705C39.0938 34.2028 39.1127 34.1839 39.1127 34.1606V34.0497C39.1127 34.0264 39.0938 34.0075 39.0705 34.0075Z" fill="#773DAD"/>
<path d="M39.7215 34.0075H39.4805C39.4571 34.0075 39.4382 34.0264 39.4382 34.0497V34.1606C39.4382 34.1839 39.4571 34.2028 39.4805 34.2028H39.7215C39.7449 34.2028 39.7638 34.1839 39.7638 34.1606V34.0497C39.7638 34.0264 39.7449 34.0075 39.7215 34.0075Z" fill="#773DAD"/>
<path d="M40.3727 34.0075H40.1316C40.1083 34.0075 40.0894 34.0264 40.0894 34.0497V34.1606C40.0894 34.1839 40.1083 34.2028 40.1316 34.2028H40.3727C40.396 34.2028 40.4149 34.1839 40.4149 34.1606V34.0497C40.4149 34.0264 40.396 34.0075 40.3727 34.0075Z" fill="#773DAD"/>
<path d="M36.0103 34.3981H33.4904C33.4671 34.3981 33.4482 34.4171 33.4482 34.4404V34.5512C33.4482 34.5746 33.4671 34.5935 33.4904 34.5935H36.0103C36.0337 34.5935 36.0526 34.5746 36.0526 34.5512V34.4404C36.0526 34.4171 36.0337 34.3981 36.0103 34.3981Z" fill="#773DAD"/>
<path d="M43.2292 18.6664H26.6052C26.5879 18.666 26.5714 18.6589 26.5593 18.6466C26.5472 18.6342 26.5404 18.6176 26.5404 18.6003C26.5404 18.583 26.5472 18.5664 26.5593 18.554C26.5714 18.5417 26.5879 18.5345 26.6052 18.5342H43.2292C43.2465 18.5345 43.2629 18.5417 43.275 18.554C43.2872 18.5664 43.2939 18.583 43.2939 18.6003C43.2939 18.6176 43.2872 18.6342 43.275 18.6466C43.2629 18.6589 43.2465 18.666 43.2292 18.6664V18.6664Z" fill="#CACACA"/>
<path d="M27.7367 18.1966C27.9507 18.1966 28.1242 18.0193 28.1242 17.8006C28.1242 17.5818 27.9507 17.4045 27.7367 17.4045C27.5228 17.4045 27.3493 17.5818 27.3493 17.8006C27.3493 18.0193 27.5228 18.1966 27.7367 18.1966Z" fill="#773DAD"/>
<path d="M29.0751 18.1966C29.2891 18.1966 29.4625 18.0193 29.4625 17.8006C29.4625 17.5818 29.2891 17.4045 29.0751 17.4045C28.8611 17.4045 28.6877 17.5818 28.6877 17.8006C28.6877 18.0193 28.8611 18.1966 29.0751 18.1966Z" fill="#773DAD"/>
<path d="M30.4136 18.1966C30.6275 18.1966 30.801 18.0193 30.801 17.8006C30.801 17.5818 30.6275 17.4045 30.4136 17.4045C30.1996 17.4045 30.0261 17.5818 30.0261 17.8006C30.0261 18.0193 30.1996 18.1966 30.4136 18.1966Z" fill="#773DAD"/>
<path d="M42.4233 17.5027H41.4726C41.4538 17.5031 41.4358 17.5108 41.4226 17.5243C41.4094 17.5377 41.402 17.5558 41.402 17.5747C41.402 17.5935 41.4094 17.6116 41.4226 17.6251C41.4358 17.6385 41.4538 17.6463 41.4726 17.6467H42.4233C42.4422 17.6463 42.4601 17.6385 42.4733 17.6251C42.4865 17.6116 42.4939 17.5935 42.4939 17.5747C42.4939 17.5558 42.4865 17.5377 42.4733 17.5243C42.4601 17.5108 42.4422 17.5031 42.4233 17.5027V17.5027Z" fill="#773DAD"/>
<path d="M42.4233 17.7729H41.4726C41.4538 17.7733 41.4358 17.781 41.4226 17.7945C41.4094 17.808 41.402 17.8261 41.402 17.8449C41.402 17.8638 41.4094 17.8818 41.4226 17.8953C41.4358 17.9088 41.4538 17.9165 41.4726 17.9169H42.4233C42.4422 17.9165 42.4601 17.9088 42.4733 17.8953C42.4865 17.8818 42.4939 17.8638 42.4939 17.8449C42.4939 17.8261 42.4865 17.808 42.4733 17.7945C42.4601 17.781 42.4422 17.7733 42.4233 17.7729V17.7729Z" fill="#773DAD"/>
<path d="M42.4233 18.0428H41.4726C41.4538 18.0431 41.4358 18.0509 41.4226 18.0644C41.4094 18.0778 41.402 18.0959 41.402 18.1148C41.402 18.1336 41.4094 18.1517 41.4226 18.1652C41.4358 18.1786 41.4538 18.1864 41.4726 18.1867H42.4233C42.4422 18.1864 42.4601 18.1786 42.4733 18.1652C42.4865 18.1517 42.4939 18.1336 42.4939 18.1148C42.4939 18.0959 42.4865 18.0778 42.4733 18.0644C42.4601 18.0509 42.4422 18.0431 42.4233 18.0428V18.0428Z" fill="#773DAD"/>
<path d="M36.2451 22.5286H34.1678C34.0118 22.5286 33.8853 22.6551 33.8853 22.8111V22.8111C33.8853 22.9671 34.0118 23.0936 34.1678 23.0936H36.2451C36.4011 23.0936 36.5276 22.9671 36.5276 22.8111V22.8111C36.5276 22.6551 36.4011 22.5286 36.2451 22.5286Z" fill="#AD90D4"/>
<path d="M37.587 23.6586H32.8259C32.6699 23.6586 32.5434 23.7851 32.5434 23.9411V23.9411C32.5434 24.0972 32.6699 24.2236 32.8259 24.2236H37.587C37.743 24.2236 37.8695 24.0972 37.8695 23.9411C37.8695 23.7851 37.743 23.6586 37.587 23.6586Z" fill="#E6E6E6"/>
<path d="M37.587 24.7887H32.8259C32.6699 24.7887 32.5434 24.9151 32.5434 25.0712C32.5434 25.2272 32.6699 25.3537 32.8259 25.3537H37.587C37.743 25.3537 37.8695 25.2272 37.8695 25.0712C37.8695 24.9151 37.743 24.7887 37.587 24.7887Z" fill="#E6E6E6"/>
<path d="M26.7674 35.5594H21.5745C21.3909 35.5594 21.2148 35.6323 21.0849 35.7622C20.9551 35.892 20.8821 36.0681 20.8821 36.2518C20.8821 36.4354 20.9551 36.6115 21.0849 36.7413C21.2148 36.8712 21.3909 36.9441 21.5745 36.9441H23.4786V42.3102H24.8634V36.9441H26.7674C26.9511 36.9441 27.1272 36.8712 27.257 36.7413C27.3869 36.6115 27.4598 36.4354 27.4598 36.2518C27.4598 36.0681 27.3869 35.892 27.257 35.7622C27.1272 35.6323 26.9511 35.5594 26.7674 35.5594Z" fill="#773DAD"/>
<path d="M30.1949 45.282H16.3053C14.9588 45.277 13.659 44.7879 12.6433 43.9038C11.6277 43.0197 10.964 41.7998 10.7734 40.4668L10.2818 38.6583C9.26415 34.9107 7.7141 31.3285 5.67901 28.0212C4.74884 26.5106 4.27009 25.0483 5.35749 23.6405C5.36675 23.6285 5.37586 23.6167 5.38481 23.605C6.25697 22.4698 10.598 22.2241 12.0132 22.1763C12.0691 22.1744 12.1252 22.1735 12.1815 22.1735H20.8207C20.8771 22.1735 20.9332 22.1744 20.989 22.1763C21.7519 22.1985 22.4946 22.4269 23.1382 22.8371C23.7817 23.2473 24.3023 23.8241 24.6445 24.5063C25.0097 25.2027 25.1796 25.9851 25.1361 26.7703C25.0926 27.5555 24.8373 28.3143 24.3974 28.9661C21.3627 33.5247 20.4335 36.3831 21.3848 38.2342C22.3049 40.0246 25.1254 40.9401 30.2611 41.1149C31.6412 41.1619 32.2746 42.2366 32.279 43.2152C32.2833 44.1685 31.6744 45.221 30.3271 45.2792C30.2833 45.281 30.2393 45.282 30.1949 45.282Z" fill="#333333"/>
<path d="M18.6649 57.6151H23.8578C24.0414 57.6151 24.2175 57.5422 24.3474 57.4123C24.4772 57.2825 24.5502 57.1064 24.5502 56.9227C24.5502 56.7391 24.4772 56.563 24.3474 56.4332C24.2175 56.3033 24.0414 56.2304 23.8578 56.2304H21.9537V44.5463H20.5689V56.2304H18.6649C18.4812 56.2304 18.3051 56.3033 18.1753 56.4332C18.0454 56.563 17.9725 56.7391 17.9725 56.9227C17.9725 57.1064 18.0454 57.2825 18.1753 57.4123C18.3051 57.5422 18.4812 57.6151 18.6649 57.6151Z" fill="#773DAD"/>
<path d="M18.2501 22.6072L18.359 23.2687C18.4105 23.5894 18.597 25.8552 18.4588 26.1256C18.4466 25.6209 17.5068 24.8273 16.8978 25.0085L15.9421 25.2209L15.3489 25.3528L14.8662 25.4587L13.4633 25.7652C13.4608 25.7489 13.4591 25.7316 13.4566 25.7153C13.4533 25.6948 13.45 25.6743 13.4458 25.6539C13.4197 25.5223 13.3721 25.396 13.3048 25.2799C13.2977 25.4354 13.2518 25.5866 13.1713 25.7198C13.1691 25.7233 13.1672 25.7269 13.1656 25.7307C13.1407 25.771 13.1132 25.8097 13.0833 25.8465C13.0819 25.8474 13.0806 25.8486 13.0795 25.8499C13.0795 25.8499 12.7913 21.255 12.8215 21.2126C12.8436 21.1825 12.8659 21.1532 12.8892 21.1246C12.9123 21.0951 12.9347 21.0667 12.9589 21.0379C12.962 21.0351 12.9646 21.0319 12.9666 21.0283C13.0343 20.9483 13.1059 20.8717 13.1812 20.7989C13.2033 20.7776 13.2263 20.7561 13.2493 20.7346C13.6003 20.4099 14.0196 20.168 14.4764 20.0268C14.528 20.0109 14.5815 19.9964 14.6359 19.9818C14.6897 19.9681 14.7445 19.9552 14.7996 19.9439L14.8182 19.9401C14.8445 19.9347 14.8718 19.93 14.8983 19.9254C14.9315 19.9195 14.9649 19.9145 14.9977 19.9104C15.4227 19.8492 15.8557 19.8735 16.2712 19.982C16.2721 19.9818 16.2722 19.9827 16.2731 19.9825C16.6199 20.0731 16.9496 20.2199 17.249 20.4171C17.7668 20.759 17.9684 21.3167 18.1115 21.9429C18.1617 22.1579 18.204 22.3816 18.2501 22.6072Z" fill="#2F2E41"/>
<path d="M23.3649 52.9047L24.2595 53.3906L26.6276 50.1163L25.3073 49.3992L23.3649 52.9047Z" fill="#FFB6B6"/>
<path d="M23.7955 51.738L25.4195 52.2465L25.1611 52.9268L26.2747 54.5431C26.3297 54.6229 26.3577 54.7183 26.3547 54.8152C26.3517 54.912 26.3178 55.0054 26.258 55.0817C26.1982 55.158 26.1155 55.2131 26.0221 55.2391C25.9287 55.2651 25.8295 55.2605 25.7388 55.2261L23.8483 54.5078L23.7781 53.711L23.3952 54.3357L22.6824 54.0649L23.7955 51.738Z" fill="#2F2E41"/>
<path d="M28.4321 38.2597C28.2893 38.2945 28.1406 38.2975 27.9965 38.2686C27.8524 38.2397 27.7164 38.1795 27.5981 38.0924C27.4798 38.0052 27.382 37.8932 27.3117 37.7642C27.2413 37.6352 27.2001 37.4923 27.191 37.3456L19.5607 34.6006L20.961 33.382L28.2032 36.2656C28.4507 36.2665 28.6891 36.3582 28.8735 36.5232C29.0578 36.6883 29.1752 36.9152 29.2034 37.161C29.2316 37.4068 29.1686 37.6544 29.0265 37.8569C28.8843 38.0594 28.6728 38.2027 28.4321 38.2597V38.2597Z" fill="#FFB6B6"/>
<path d="M17.4292 27.8002C17.4292 27.8002 16.1441 27.8285 16.0298 29.2957C15.9156 30.7628 18.7197 34.3918 19.1541 34.9903C19.5886 35.5887 24.4143 36.3253 24.4143 36.3253L26.0547 35.1344C24.331 34.0175 22.7579 33.1611 21.7021 33.1996L17.4292 27.8002Z" fill="#AD90D4"/>
<path d="M15.853 34.2739L16.1662 35.6193C16.1662 35.6193 16.1693 36.86 16.389 37.0888C16.6072 37.3165 21.4049 36.8593 21.4049 36.8593C21.4049 36.8593 20.8962 34.86 20.903 33.3473L15.853 34.2739Z" fill="#FFB6B6"/>
<path d="M25.9885 51.4843L24.2576 50.5323C24.2246 48.2799 25.5794 45.2317 27.1863 42.0391C23.5926 42.6571 20.2022 42.8551 17.2697 42.1074C16.7882 41.9803 16.3761 41.6688 16.1225 41.2404C15.8688 40.8119 15.794 40.3008 15.9141 39.8176C15.9255 39.7701 15.9387 39.7232 15.9537 39.6767C16.3046 38.6059 15.5177 37.9347 16.2415 36.7569C18.1452 36.1068 19.9537 35.9231 21.6075 36.4973L22.6437 38.7883L27.7797 38.1237C28.0278 38.0941 28.2794 38.1138 28.5199 38.1818C28.7603 38.2498 28.985 38.3647 29.1808 38.52C29.3767 38.6752 29.5399 38.8676 29.661 39.0862C29.7821 39.3048 29.8588 39.5452 29.8866 39.7936C29.8935 39.8493 29.898 39.9053 29.9001 39.9615C28.8616 44.8301 27.6972 49.2108 25.9885 51.4843Z" fill="#2F2E41"/>
<path d="M16.0909 24.9762C17.2525 24.7385 18.0015 23.6041 17.7638 22.4425C17.5261 21.2809 16.3918 20.5319 15.2302 20.7696C14.0686 21.0073 13.3196 22.1417 13.5573 23.3033C13.7949 24.4649 14.9293 25.2138 16.0909 24.9762Z" fill="#FFB6B6"/>
<path d="M15.1559 25.7555L17.1345 25.6387C17.2179 25.6337 17.3008 25.655 17.3716 25.6994C17.4424 25.7438 17.4976 25.8092 17.5295 25.8865L18.0886 27.242L20.4125 29.1626C20.4125 29.1626 21.3325 30.3335 21.3347 31.8456C21.3368 33.3577 21.6611 36.8576 21.6611 36.8576C21.6611 36.8576 20.3183 34.9675 19.4895 35.4702C19.3485 35.5557 19.2989 35.7306 19.1512 35.819C19.0775 35.8631 18.9073 35.8202 18.8329 35.8644C17.6908 36.5424 16.4998 37.2047 16.3885 37.0886C16.17 36.8606 15.9049 35.6954 15.9049 35.6954L14.0938 29.0409C13.9956 28.6908 13.9761 28.3233 14.0367 27.9647C14.0972 27.6062 14.2364 27.2655 14.4442 26.967C14.5707 26.7889 14.7033 26.6564 14.8265 26.6344C15.1031 26.5755 14.956 25.9556 15.1559 25.7555Z" fill="#AD90D4"/>
<path d="M31.9869 55.7235L32.8221 55.1428L30.9301 51.5732L29.6974 52.4302L31.9869 55.7235Z" fill="#FFB6B6"/>
<path d="M32.1131 53.3283L30.8042 54.4983C28.7229 52.1792 27.1495 48.9267 25.8161 45.233C22.3225 44.2098 19.6879 42.5597 17.3879 40.6004C16.6076 39.9402 16.0227 39.092 16.6881 38.2877C16.7192 38.2501 16.7517 38.2138 16.7856 38.1786C17.5713 37.3711 19.5639 37.525 20.7309 36.7852L23.3378 39.5718L23.1739 40.3188L28.0705 41.9775C28.3061 42.0601 28.5231 42.1885 28.7088 42.3553C28.8945 42.5222 29.0454 42.7241 29.1527 42.9495C29.26 43.175 29.3216 43.4194 29.334 43.6688C29.3463 43.9181 29.3092 44.1674 29.2247 44.4024C29.2064 44.4555 29.1858 44.5077 29.163 44.5591L32.1131 53.3283Z" fill="#2F2E41"/>
<path d="M31.4999 55.4881L32.8369 54.4352L33.2523 55.0328L35.2151 55.0268C35.312 55.0265 35.4065 55.0572 35.4848 55.1144C35.563 55.1716 35.621 55.2523 35.6501 55.3448C35.6792 55.4373 35.6781 55.5366 35.6467 55.6284C35.6154 55.7201 35.5556 55.7994 35.476 55.8547L33.8154 57.0091L33.1182 56.6169L33.4174 57.2858L32.7913 57.721L31.4999 55.4881Z" fill="#2F2E41"/>
<path d="M18.0776 42.5259C17.9423 42.4685 17.8213 42.3821 17.723 42.2729C17.6247 42.1636 17.5516 42.0341 17.5088 41.8935C17.4659 41.753 17.4544 41.6047 17.4751 41.4592C17.4958 41.3137 17.5481 41.1745 17.6284 41.0514L13.1491 34.2919L15.0001 34.1512L19.0854 40.79C19.2832 40.9386 19.4197 41.1546 19.4689 41.397C19.5181 41.6395 19.4767 41.8916 19.3525 42.1056C19.2283 42.3195 19.0299 42.4805 18.7949 42.558C18.5599 42.6355 18.3047 42.624 18.0776 42.5259Z" fill="#FFB6B6"/>
<path d="M15.5022 27.5649C15.5022 27.5649 14.4547 26.8199 13.4866 27.9283C12.5185 29.0366 12.5993 33.622 12.5902 34.3615C12.5874 34.593 12.9217 35.0927 13.3824 35.6698C13.5892 35.9289 13.8215 36.2036 14.0601 36.4767C14.1983 36.6347 14.0793 36.9636 14.2179 37.1172C14.3558 37.27 14.7514 37.2475 14.8826 37.3892C15.5052 38.0622 16.0111 38.5744 16.0111 38.5744L18.0381 38.5994C18.0609 37.0925 17.029 35.7475 15.7034 34.4476L15.5022 27.5649Z" fill="#AD90D4"/>
<path d="M18.3438 21.83C18.2643 21.8693 18.1873 21.9071 18.1116 21.9429C17.8078 22.0923 17.4938 22.22 17.1721 22.3251C17.1185 22.1795 17.0368 22.0458 16.9317 21.9317C16.9586 22.0893 16.9449 22.2511 16.8918 22.4019C16.4048 22.5225 15.8935 22.5028 15.4172 22.3449C15.7287 22.9217 15.9588 24.137 15.9421 25.2209C15.9348 25.7939 15.8572 26.3301 15.6878 26.7155L15.4702 26.0533C15.45 25.8168 15.4094 25.5824 15.3489 25.3528C15.203 24.7086 15.0667 25.1394 14.8662 25.4587L13.4633 25.7652C13.4608 25.7489 13.4591 25.7316 13.4566 25.7153C13.4533 25.6948 13.45 25.6743 13.4458 25.6539C13.4197 25.5223 13.3721 25.396 13.3048 25.2799C13.2977 25.4354 13.2518 25.5866 13.1713 25.7198C13.1691 25.7233 13.1672 25.7269 13.1656 25.7307C13.1407 25.771 13.1132 25.8097 13.0833 25.8465C13.0819 25.8474 13.0806 25.8486 13.0796 25.8499C12.1738 25.9711 11.5389 21.3004 12.8217 21.2135C12.859 21.2109 12.866 21.154 12.8892 21.1246C12.9123 21.0951 12.9347 21.0666 12.9589 21.0378C12.962 21.0351 12.9646 21.0319 12.9667 21.0283C13.0352 20.9489 13.1062 20.8726 13.1812 20.7989C13.2033 20.7776 13.2263 20.7561 13.2493 20.7346C13.6014 20.4115 14.0204 20.17 14.4766 20.0276C14.5281 20.0118 14.5815 19.9964 14.636 19.9818C14.6897 19.9681 14.7445 19.9551 14.7996 19.9439L14.8182 19.94C14.8445 19.9347 14.8718 19.93 14.8983 19.9254C14.9315 19.9195 14.9649 19.9144 14.9977 19.9104C15.1206 19.9724 15.2258 20.0645 15.3034 20.1782L16.1996 19.9949C16.2234 19.99 16.2473 19.986 16.2714 19.9828L16.2731 19.9825C17.392 19.795 18.1114 20.6947 18.3438 21.83Z" fill="#2F2E41"/>
<path d="M13.459 21.0043C13.2671 21.1428 13.0652 21.2855 12.831 21.3198C12.5969 21.3541 12.3227 21.2409 12.2579 21.0133C12.1787 20.735 12.43 20.4816 12.6559 20.3007L13.3721 19.7271C13.5033 19.6108 13.6514 19.5151 13.8113 19.4432C13.8916 19.4078 13.9789 19.391 14.0666 19.3939C14.1543 19.3969 14.2402 19.4195 14.318 19.4601C14.395 19.5121 14.4574 19.5829 14.4992 19.6659C14.5411 19.7488 14.561 19.841 14.5571 19.9338C14.5469 20.1199 14.4855 20.2994 14.3797 20.4528C14.2468 20.66 14.0732 20.8382 13.8696 20.9767C13.666 21.1151 13.4364 21.2109 13.1948 21.2583" fill="#2F2E41"/>
<path d="M18.8915 35.9056H13.6986C13.515 35.9056 13.3389 35.9785 13.209 36.1084C13.0792 36.2382 13.0062 36.4143 13.0062 36.598C13.0062 36.7816 13.0792 36.9577 13.209 37.0875C13.3389 37.2174 13.515 37.2903 13.6986 37.2903H15.6027V42.6564H16.9875V37.2903H18.8915C19.0752 37.2903 19.2513 37.2174 19.3811 37.0875C19.511 36.9577 19.5839 36.7816 19.5839 36.598C19.5839 36.4143 19.511 36.2382 19.3811 36.1084C19.2513 35.9785 19.0752 35.9056 18.8915 35.9056Z" fill="#773DAD"/>
<path d="M38.0763 57.8656L0.103059 57.8922C0.0757798 57.8922 0.0496453 57.8813 0.0303838 57.8619C0.0111222 57.8426 0.000305176 57.8165 0.000305176 57.7892C0.000305176 57.7619 0.0111222 57.7357 0.0303838 57.7164C0.0496453 57.6971 0.0757798 57.6862 0.103059 57.6861L38.0763 57.6595C38.1035 57.6596 38.1297 57.6705 38.1489 57.6898C38.1682 57.7091 38.179 57.7353 38.179 57.7626C38.179 57.7899 38.1682 57.816 38.1489 57.8353C38.1297 57.8547 38.1035 57.8656 38.0763 57.8656Z" fill="white"/>
<path d="M49.1268 46.3707L49.9722 47.2919L53.9278 44.4697L52.6801 43.11L49.1268 46.3707Z" fill="#A0616A"/>
<path d="M50.8765 47.6744V47.6736L50.7908 46.7536L50.7518 46.7354L50.5242 46.6272L49.4501 46.1192L49.4276 46.0949L49.2121 45.8595L48.0186 46.9552L49.6353 48.7173L50.744 49.9256L50.7813 49.8909C50.9332 49.7517 51.0562 49.584 51.1432 49.3972C51.2302 49.2104 51.2796 49.0083 51.2884 48.8024C51.2973 48.5966 51.2654 48.391 51.1947 48.1974C51.124 48.0039 51.0159 47.8262 50.8765 47.6744H50.8765Z" fill="#2F2E41"/>
<path d="M44.7472 55.5607L45.9435 55.9242L47.9145 51.4827L46.1488 50.9463L44.7472 55.5607Z" fill="#A0616A"/>
<path d="M47.8446 56.5552C47.7482 56.3731 47.6165 56.2119 47.4572 56.0812C47.2979 55.9504 47.1142 55.8527 46.9168 55.7936L46.3742 55.0449L46.3318 55.0484L44.8976 55.1799L44.8656 55.1704L44.561 55.0778L44.0901 56.6279L47.9476 57.7998L47.9623 57.7504C48.0225 57.5533 48.0431 57.3462 48.0229 57.141C48.0027 56.9359 47.9421 56.7368 47.8446 56.5552V56.5552Z" fill="#2F2E41"/>
<path d="M54.612 32.3058C54.612 32.3058 62.25 39.6804 57.4213 41.9631H55.9289C55.9289 41.9631 55.4804 40.3697 54.4536 39.026C54.3126 38.8415 53.7844 38.879 53.6377 38.6991C52.742 37.6011 51.7709 36.6581 51.1003 36.6955L51.2607 41.7909L51.5204 43.6084C51.6567 44.5479 47.809 52.7516 47.809 52.7516L45.3905 51.8011C45.3905 51.8011 47.9102 45.0442 47.9397 44.0701L45.9205 33.3593L54.612 32.3058Z" fill="#2F2E41"/>
<path d="M55.2489 32.6695C55.2099 32.725 55.1591 32.7712 55.1 32.8045C55.0027 32.8595 54.8972 32.8987 54.7876 32.9205C53.0678 33.3108 47.45 34.1201 45.9916 33.7341C45.8125 33.6873 45.6956 33.6215 45.6575 33.535C45.5355 33.2615 45.5511 32.1061 45.6229 30.7109C45.6359 30.4495 45.9241 30.1665 45.9414 29.893C45.9535 29.6879 45.6948 29.4949 45.7086 29.2863C45.8038 27.8756 45.9267 26.438 46.0089 25.5292C46.0609 24.945 46.0964 24.5798 46.0964 24.5798L45.2092 18.9862L45.2508 18.9178L45.2975 18.8944L48.1579 17.4785L48.3137 17.0804C48.3589 16.9657 48.4373 16.8673 48.539 16.7977C48.6407 16.7281 48.7609 16.6906 48.8841 16.69L50.7682 16.6822C50.866 16.6817 50.9625 16.7045 51.0496 16.7488C51.1368 16.793 51.2121 16.8575 51.2694 16.9367L51.78 17.6438L55.1554 19.8075L55.1424 19.8473L53.5586 24.6672L53.5508 25.0428V25.0437L53.4919 28.0643L53.6555 28.4736L53.4712 29.1452C53.4712 29.1452 53.556 29.9302 54.0104 30.5136C54.4223 31.0433 54.9468 31.5954 55.184 32.0438V32.0446C55.3155 32.2922 55.3596 32.5068 55.2489 32.6695Z" fill="#AD90D4"/>
<path d="M57.7881 41.525L57.3798 42.0409C57.3798 42.0409 53.625 44.6677 53.4961 44.9132L52.9027 45.4747L51.4669 43.9399L52.2136 43.0041C52.8111 42.2551 53.5831 41.6641 54.4621 41.2827V41.2827L55.6064 40.2674L57.7881 41.525Z" fill="#2F2E41"/>
<path d="M55.4023 34.1521L54.7185 27.5337L54.538 24.8098L56.4518 24.4638C56.4518 24.4638 56.376 26.4114 56.6267 27.5103C56.8741 28.5947 56.6595 34.0068 56.6443 34.1515C56.7848 34.2772 56.8839 34.4426 56.9284 34.6258C56.9729 34.8091 56.9607 35.0015 56.8935 35.1776C56.8263 35.3538 56.7072 35.5054 56.5519 35.6124C56.3967 35.7193 56.2126 35.7767 56.024 35.7768C55.8355 35.7769 55.6514 35.7197 55.496 35.6129C55.3406 35.506 55.2214 35.3545 55.154 35.1785C55.0866 35.0024 55.0742 34.81 55.1186 34.6267C55.1629 34.4434 55.2618 34.2779 55.4023 34.1521V34.1521Z" fill="#A0616A"/>
<path d="M57.2692 28.9052L54.8092 29.4144L54.5941 28.5569L54.3434 28.2909L53.8424 25.6665L53.1236 24.1291L53.3104 18.8718L55.1361 19.8401L55.1383 19.8418C55.4175 20.1449 55.61 20.5787 55.93 21.014C56.9383 22.3857 57.0501 25.7188 57.0196 27.5445C57.0191 27.5744 57.0492 27.6061 57.0854 27.6393C57.2571 27.7969 57.3691 28.009 57.4026 28.2396C57.4361 28.4702 57.3889 28.7053 57.2692 28.9052V28.9052Z" fill="#AD90D4"/>
<path d="M44.2631 34.4118L44.9468 27.7934L45.1273 25.0695L43.2135 24.7234C43.2135 24.7234 43.2893 26.6711 43.0386 27.77C42.7912 28.8544 43.0058 34.2665 43.0211 34.4112C42.8805 34.5369 42.7815 34.7023 42.7369 34.8855C42.6924 35.0687 42.7046 35.2611 42.7718 35.4373C42.8391 35.6134 42.9582 35.765 43.1134 35.872C43.2687 35.979 43.4528 36.0363 43.6413 36.0364C43.8299 36.0365 44.014 35.9793 44.1694 35.8725C44.3247 35.7657 44.444 35.6142 44.5114 35.4381C44.5788 35.262 44.5911 35.0696 44.5468 34.8863C44.5024 34.7031 44.4035 34.5376 44.2631 34.4118V34.4118Z" fill="#A0616A"/>
<path d="M46.5421 24.3885L46.0089 25.5292L45.8229 25.9265L45.3217 28.5507L45.0716 28.8164L44.8561 29.6741L44.7548 29.6533L42.9287 29.2751L42.3964 29.1651C42.2764 28.9653 42.2292 28.7301 42.2626 28.4994C42.296 28.2686 42.4081 28.0566 42.5799 27.8989C42.6162 27.866 42.6465 27.834 42.6457 27.8037C42.6154 25.9784 42.727 22.6454 43.7353 21.2736C44.0555 20.8383 44.2477 20.4047 44.5272 20.1018C44.5281 20.1009 44.5281 20.1 44.5289 20.1L45.2092 18.9862L45.2508 18.9178L45.2975 18.8944L46.5421 24.3885Z" fill="#AD90D4"/>
<path d="M49.7718 16.1458C51.1563 16.1458 52.2787 15.0235 52.2787 13.6389C52.2787 12.2544 51.1563 11.132 49.7718 11.132C48.3872 11.132 47.2648 12.2544 47.2648 13.6389C47.2648 15.0235 48.3872 16.1458 49.7718 16.1458Z" fill="#A0616A"/>
<path d="M52.5901 12.5391C52.5815 12.1116 52.533 11.5646 52.2335 11.1284C51.9808 10.7614 51.471 10.4706 50.9959 10.616C51.0012 10.521 50.9801 10.4264 50.9349 10.3427C50.8897 10.2589 50.8221 10.1894 50.7397 10.1418C50.5597 10.0318 50.3433 10.0119 50.152 9.99376C49.67 9.94875 49.1706 9.90201 48.6825 9.99462C48.1346 10.0985 47.6863 10.3806 47.4535 10.7692L47.4483 10.7813L47.4007 11.0116C47.3943 11.0424 47.3814 11.0716 47.3627 11.097C47.344 11.1224 47.3201 11.1434 47.2925 11.1587C47.2649 11.1742 47.2342 11.1834 47.2026 11.1856C47.1711 11.1879 47.1394 11.1831 47.1099 11.1717C47.0776 11.1596 47.0427 11.1561 47.0086 11.1616C46.9745 11.1671 46.9425 11.1814 46.9157 11.2031C46.8888 11.2248 46.8681 11.2531 46.8556 11.2852C46.843 11.3173 46.8391 11.3522 46.8442 11.3863L46.8571 11.4781L46.7195 11.4521C46.685 11.4454 46.6493 11.4481 46.6161 11.4598C46.5829 11.4715 46.5535 11.4919 46.5308 11.5188C46.5081 11.5457 46.4931 11.5782 46.4871 11.6129C46.4812 11.6475 46.4846 11.6832 46.4971 11.7161L46.5352 11.8208C46.5068 11.8212 46.4787 11.8273 46.4527 11.8387C46.4266 11.8502 46.4032 11.8667 46.3837 11.8874C46.3559 11.9176 46.3384 11.9558 46.3338 11.9966C46.3291 12.0373 46.3375 12.0785 46.3578 12.1142C46.512 12.3775 46.7306 12.5973 46.993 12.7529C47.1111 12.824 47.2383 12.8785 47.3712 12.9148C47.3989 12.9226 47.4275 12.9295 47.4569 12.9355C48.5195 13.1646 49.6151 13.1974 50.6895 13.0325C50.6262 13.2445 50.6019 13.4661 50.6177 13.6868C50.6523 13.9629 50.8141 14.1905 51.0305 14.2667C51.0795 14.2833 51.1299 14.2954 51.1811 14.303C51.2302 14.311 51.2785 14.3228 51.3256 14.3385C51.3953 14.364 51.4569 14.4074 51.5043 14.4644C51.5518 14.5214 51.5833 14.5898 51.5958 14.6629C51.6083 14.736 51.6012 14.8111 51.5754 14.8805C51.5495 14.95 51.5058 15.0114 51.4485 15.0586C51.4485 15.0586 51.6753 15.2464 51.7039 15.2369C51.8153 15.1876 51.9086 15.1047 51.9704 14.9997C52.4023 14.3783 52.6109 13.5509 52.5901 12.5391Z" fill="#2F2E41"/>
</g>
<defs>
<clipPath id="clip0_318_4064">
<rect width="67" height="57.9788" fill="white"/>
</clipPath>
</defs>
</svg>
